<svg xmlns="http://www.w3.org/2000/svg" viewBox="-1915.63 -252 191.828 60.481">
  <defs>
    <style>
      .cls-1 {
        fill: #360a3d;
      }

      .cls-2 {
        fill: #2bb5fd;
      }
    </style>
  </defs>
  <g id="Group_85" data-name="Group 85" transform="translate(-1915.673 -252.011)">
    <rect id="full_stop_1_" class="cls-1" width="4.036" height="4.036" transform="translate(187.835 43.489)"/>
    <path id="rating_1_" class="cls-2" d="M527.816,144.572h-2.283l-.032-3.956h11.176c4.567,0,7.767,2.814,7.767,7.525,0,4.5-3.087,6.368-4.149,6.577v.064a2.92,2.92,0,0,1,1.238,1.27l2.428,4.647c.386.74.981.8,1.753.8h.45v4.068h-2.412c-1.865,0-2.669-.273-3.473-1.865l-3.2-6.287c-.531-.981-1.061-1.158-2.348-1.158h-2.316v9.31h-4.6Zm8.249,7.734c2.316,0,3.7-1.447,3.7-3.94,0-2.46-1.351-3.811-3.6-3.811H532.43l-.032,7.751Zm22.528,1.978h.563v-.145c0-2.573-1.045-3.875-3.329-3.875-.8,0-2.4.209-2.4,1.19v.949h-4.149v-1.9c0-3.345,4.711-3.7,6.577-3.7,5.982,0,7.751,3.489,7.751,7.493v6.4a.7.7,0,0,0,.772.772h1.4v4.036h-4c-1.656,0-2.283-.917-2.283-1.962,0-.45.032-.772.032-.772h-.064s-1.367,2.75-5.419,2.75c-3.2,0-6.11-1.592-6.11-5.178C547.932,154.75,555.666,154.284,558.593,154.284Zm-3.457,8.2c2.4,0,4.084-2.525,4.084-4.711v-.418h-.772c-2.315,0-6.014.322-6.014,2.814A2.392,2.392,0,0,0,555.135,162.485Zm12.719-11.449h-2.315v-4.2h2.428v-4.2h4.358v4.2h4.068v4.2h-4.084v7.14c0,2.959,2.316,3.377,3.554,3.377a4.3,4.3,0,0,0,.8-.064v4.084H575.3c-2.492,0-7.445-.74-7.445-6.754Zm12.575.772a.682.682,0,0,0-.772-.772h-1.4v-4.2h3.6c1.656,0,2.348.74,2.348,2.4v11.481a.7.7,0,0,0,.772.772h1.4v4.084h-3.6c-1.656,0-2.348-.708-2.348-2.4Zm.016-11.208h3.795v4.036h-3.795Zm8.6,11.208a.682.682,0,0,0-.772-.772h-1.4v-4.2h4.117c1.576,0,2.3,1.431,2.3,2.782l-.016,1.3h.064a7.1,7.1,0,0,1,6.336-4.084c3.972,0,6.255,2.428,6.255,7.172V160.7a.7.7,0,0,0,.772.772h1.4v4.068h-4.261c-1.688,0-2.4-.868-2.4-2.557v-8.072c0-2.187-.563-3.731-2.814-3.731a5.149,5.149,0,0,0-4.824,3.891,7.711,7.711,0,0,0-.354,2.4v8.072h-4.422V151.808Zm28.044-4.937c4.149,0,5.515,2.525,5.515,2.525h.064v-.9c0-.8.563-1.656,1.962-1.656h4.149v4.2h-1.367a.685.685,0,0,0-.772.708v13.073c0,6.159-4.776,8.474-9.455,8.474a14.262,14.262,0,0,1-6.368-1.544l1.367-3.522a11.63,11.63,0,0,0,4.953,1.19c2.7,0,5.065-1.158,5.065-4.39v-.836c0-.418.032-.949.032-.949h-.064a5.562,5.562,0,0,1-4.985,2.316c-5.13,0-8.056-4.84-8.056-9.761C609.148,150.875,611.93,146.871,617.092,146.871Zm5.242,9.278c0-4.084-2.042-5.13-4.47-5.13-2.7,0-4.181,1.93-4.181,4.953,0,3.136,1.576,5.162,4.47,5.162C620.292,161.15,622.334,160.2,622.334,156.149Z" transform="translate(-440.963 -117.983)"/>
    <path id="icon_2_" class="cls-2" d="M79.375,17.681,66.4,4.318C62.941.749,56.123-.94,51.251.556L9.234,13.4c-2.573.788-4.1,2.3-4.486,4.084a.122.122,0,0,1,.016-.064L.149,37.668c-.37,1.608.225,3.457,1.881,5.162L14.99,56.193c3.457,3.554,10.275,5.242,15.147,3.763L70.6,47.574c-.884-.289-.756-1.142-.756-2.106v-.515a3.3,3.3,0,0,1,.113-.82h-.08A6.975,6.975,0,0,1,63.5,47.558c-3.956,0-6.368-2.01-6.368-7.043V34.066a.925.925,0,0,0-.82-1.029H54.885V28.856h4.358c1.7,0,2.4.933,2.4,2.6v8.265c0,2.251.659,3.618,2.943,3.618,3.345,0,5.258-2.943,5.258-6.239V28.873h4.5V42.83c0,.515.289.675.8.675h1.319c.788-3.6-.016.016,4.792-20.679a.3.3,0,0,1-.032.113C81.642,21.283,81.063,19.417,79.375,17.681ZM34.914,26.605H30.926V47.67H26.263V26.605h-4c-.515,0-.659.45-.659.965v.643H17.258V24.74c0-1.7.611-2.155,2.348-2.155H37.567c1.737,0,2.364.45,2.364,2.155v3.473h-4.02V27.57A1.018,1.018,0,0,0,34.914,26.605Zm18.363,6.432H52.071a5.615,5.615,0,0,0-5,4.309,11.107,11.107,0,0,0-.386,3.023v7.316H42.021v-13.6a.925.925,0,0,0-.82-1.029h-1.27V28.873h4.02a2.138,2.138,0,0,1,2.412,2.412v1.093a3.812,3.812,0,0,1-.016.675h.08a6.1,6.1,0,0,1,5.95-4.261,5.115,5.115,0,0,1,.9.08Z" transform="translate(0 0)"/>
  </g>
</svg>
